<svg width="14" height="15" viewBox="0 0 14 15" fill="none" xmlns="http://www.w3.org/2000/svg">
<path d="M4.6665 12.334V4.16732C4.6665 3.62483 4.6665 3.35359 4.72613 3.13105C4.88795 2.52714 5.35966 2.05543 5.96357 1.89361C6.18611 1.83398 6.45735 1.83398 6.99984 1.83398C7.54232 1.83398 7.81356 1.83398 8.0361 1.89361C8.64001 2.05543 9.11172 2.52714 9.27354 3.13105C9.33317 3.35359 9.33317 3.62483 9.33317 4.16732V12.334M3.03317 12.334H10.9665C11.6199 12.334 11.9466 12.334 12.1962 12.2068C12.4157 12.095 12.5942 11.9165 12.706 11.697C12.8332 11.4474 12.8332 11.1207 12.8332 10.4673V6.03398C12.8332 5.38059 12.8332 5.05389 12.706 4.80433C12.5942 4.58481 12.4157 4.40633 12.1962 4.29448C11.9466 4.16732 11.6199 4.16732 10.9665 4.16732H3.03317C2.37978 4.16732 2.05308 4.16732 1.80351 4.29448C1.58399 4.40633 1.40552 4.58481 1.29366 4.80433C1.1665 5.05389 1.1665 5.38059 1.1665 6.03398V10.4673C1.1665 11.1207 1.1665 11.4474 1.29366 11.697C1.40552 11.9165 1.58399 12.095 1.80351 12.2068C2.05308 12.334 2.37978 12.334 3.03317 12.334Z" stroke="#7C7C7C" stroke-linecap="round" stroke-linejoin="round"/>
</svg>
