<svg width="24" height="25" viewBox="0 0 24 25" fill="none" xmlns="http://www.w3.org/2000/svg">
<path d="M20.5 7.36182L12 12.084M12 12.084L3.49997 7.36182M12 12.084L12 21.5841M21 16.1426V8.02551C21 7.68287 21 7.51155 20.9495 7.35875C20.9049 7.22357 20.8318 7.09949 20.7354 6.9948C20.6263 6.87647 20.4766 6.79326 20.177 6.62686L12.777 2.51575C12.4934 2.35819 12.3516 2.27941 12.2015 2.24853C12.0685 2.22119 11.9315 2.22119 11.7986 2.24853C11.6484 2.27941 11.5066 2.35819 11.223 2.51575L3.82297 6.62686C3.52345 6.79327 3.37369 6.87647 3.26463 6.9948C3.16816 7.09949 3.09515 7.22358 3.05048 7.35875C3 7.51155 3 7.68287 3 8.02552V16.1426C3 16.4853 3 16.6566 3.05048 16.8094C3.09515 16.9446 3.16816 17.0686 3.26463 17.1733C3.37369 17.2917 3.52345 17.3749 3.82297 17.5413L11.223 21.6524C11.5066 21.8099 11.6484 21.8887 11.7986 21.9196C11.9315 21.9469 12.0685 21.9469 12.2015 21.9196C12.3516 21.8887 12.4934 21.8099 12.777 21.6524L20.177 17.5413C20.4766 17.3749 20.6263 17.2917 20.7354 17.1733C20.8318 17.0686 20.9049 16.9446 20.9495 16.8094C21 16.6566 21 16.4853 21 16.1426Z" stroke="#D0C5FF" stroke-width="1.2" stroke-linecap="round" stroke-linejoin="round"/>
<path d="M16.5 9.58398L7.5 4.58398" stroke="#D0C5FF" stroke-width="1.2" stroke-linecap="round" stroke-linejoin="round"/>
</svg>
