<svg width="20" height="21" viewBox="0 0 20 21" fill="none" xmlns="http://www.w3.org/2000/svg">
<path d="M12.4165 19.2018H7.58318C6.84151 19.2018 5.8915 18.8102 5.37484 18.2852L1.95818 14.8685C1.43318 14.3435 1.0415 13.3935 1.0415 12.6602V7.82683C1.0415 7.08516 1.43318 6.13517 1.95818 5.6185L5.37484 2.20183C5.89984 1.67683 6.84984 1.28516 7.58318 1.28516H12.4165C13.1582 1.28516 14.1082 1.67683 14.6248 2.20183L18.0415 5.6185C18.5665 6.1435 18.9582 7.09349 18.9582 7.82683V12.6602C18.9582 13.4018 18.5665 14.3518 18.0415 14.8685L14.6248 18.2852C14.0998 18.8102 13.1582 19.2018 12.4165 19.2018ZM7.58318 2.53516C7.17484 2.53516 6.5415 2.79349 6.25817 3.08516L2.84151 6.50183C2.55817 6.7935 2.2915 7.4185 2.2915 7.82683V12.6602C2.2915 13.0685 2.54984 13.7018 2.84151 13.9851L6.25817 17.4018C6.54983 17.6852 7.17484 17.9518 7.58318 17.9518H12.4165C12.8248 17.9518 13.4582 17.6935 13.7415 17.4018L17.1582 13.9851C17.4415 13.6935 17.7082 13.0685 17.7082 12.6602V7.82683C17.7082 7.4185 17.4498 6.78516 17.1582 6.50183L13.7415 3.08516C13.4498 2.80183 12.8248 2.53516 12.4165 2.53516H7.58318Z" fill="#38008F"/>
<path d="M4.11657 16.7695C3.95823 16.7695 3.7999 16.7112 3.6749 16.5862C3.43324 16.3445 3.43324 15.9445 3.6749 15.7029L15.4582 3.91953C15.6999 3.67786 16.0999 3.67786 16.3416 3.91953C16.5832 4.1612 16.5832 4.5612 16.3416 4.80286L4.55823 16.5862C4.43323 16.7112 4.2749 16.7695 4.11657 16.7695Z" fill="#38008F"/>
</svg>
