<svg width="9" height="13" viewBox="0 0 9 13" fill="none" xmlns="http://www.w3.org/2000/svg">
<path d="M4.12145 12.7727V0.0454538H4.93679V12.7727H4.12145ZM6.67188 3.9929C6.61884 3.52225 6.40009 3.15767 6.01562 2.89915C5.63116 2.63731 5.14725 2.50639 4.56392 2.50639C4.14631 2.50639 3.78504 2.57268 3.48011 2.70526C3.17519 2.83452 2.93821 3.01349 2.76918 3.24219C2.60346 3.46757 2.5206 3.72443 2.5206 4.01278C2.5206 4.25473 2.57694 4.46354 2.68963 4.6392C2.80563 4.81487 2.95644 4.96236 3.14205 5.08168C3.33097 5.19768 3.53314 5.29545 3.74858 5.375C3.96402 5.45123 4.17116 5.5142 4.37003 5.56392L5.36435 5.82244C5.68916 5.90199 6.02225 6.00971 6.36364 6.1456C6.70502 6.28149 7.02154 6.46046 7.31321 6.68253C7.60488 6.90459 7.8402 7.17969 8.01918 7.50781C8.20147 7.83594 8.29261 8.22869 8.29261 8.68608C8.29261 9.26278 8.14347 9.77486 7.84517 10.2223C7.55019 10.6697 7.12098 11.0227 6.55753 11.2812C5.9974 11.5398 5.3196 11.669 4.52415 11.669C3.76184 11.669 3.10227 11.5481 2.54545 11.3061C1.98864 11.0642 1.55279 10.7211 1.23793 10.277C0.923059 9.82955 0.749053 9.29924 0.715909 8.68608H2.2571C2.28693 9.05398 2.40625 9.36056 2.61506 9.60582C2.82718 9.84777 3.0973 10.0284 3.42543 10.1477C3.75687 10.2637 4.11979 10.3217 4.5142 10.3217C4.94839 10.3217 5.33452 10.2538 5.67259 10.1179C6.01397 9.97869 6.28243 9.78646 6.47798 9.54119C6.67353 9.29261 6.77131 9.0026 6.77131 8.67116C6.77131 8.36955 6.68513 8.12263 6.51278 7.9304C6.34375 7.73816 6.1134 7.57907 5.82173 7.45312C5.53338 7.32718 5.20691 7.21615 4.84233 7.12003L3.6392 6.7919C2.82386 6.56984 2.17756 6.24337 1.70028 5.8125C1.22633 5.38163 0.989347 4.81155 0.989347 4.10227C0.989347 3.51562 1.14844 3.00355 1.46662 2.56605C1.7848 2.12855 2.21567 1.78883 2.75923 1.54688C3.30279 1.30161 3.91596 1.17898 4.59872 1.17898C5.28812 1.17898 5.89631 1.29995 6.4233 1.5419C6.9536 1.78385 7.37121 2.11695 7.67614 2.54119C7.98106 2.96212 8.14015 3.44602 8.15341 3.9929H6.67188Z" fill="#3F3F3F"/>
</svg>
