<svg width="24" height="24" viewBox="0 0 24 24" fill="none" xmlns="http://www.w3.org/2000/svg">
<circle cx="5" cy="18" r="2.5" stroke="#3F3F3F"/>
<circle cx="11" cy="18" r="2.5" stroke="#3F3F3F"/>
<path fill-rule="evenodd" clip-rule="evenodd" d="M2 7H22C22.5523 7 23 7.44772 23 8V15C23 15.5523 22.5523 16 22 16H13.2361C13.4944 16.2885 13.6976 16.6274 13.8293 17H22C23.1046 17 24 16.1046 24 15V8C24 6.89543 23.1046 6 22 6H2C0.895431 6 0 6.89543 0 8V15C0 16.1046 0.89543 17 2 17H2.17071C2.30241 16.6274 2.50564 16.2885 2.76389 16H2C1.44772 16 1 15.5523 1 15V8C1 7.44772 1.44772 7 2 7ZM7.23611 16C7.49436 16.2885 7.69759 16.6274 7.82929 17H8.17071C8.30241 16.6274 8.50564 16.2885 8.76389 16H7.23611Z" fill="#3F3F3F"/>
<path d="M17.4998 6.5C17.5005 8 16.5005 8.5 16.0005 10C15.5005 11.5 16.3337 12.5 16.0005 13.5C15.6673 14.5 15.0005 15.5 13.5005 16.5" stroke="#3F3F3F"/>
<path d="M21 20.5C21.2761 20.5 21.5 20.2761 21.5 20C21.5 19.7239 21.2761 19.5 21 19.5V20.5ZM18 19.5C17.7239 19.5 17.5 19.7239 17.5 20C17.5 20.2761 17.7239 20.5 18 20.5V19.5ZM19.0882 17V20H20.0882V17H19.0882ZM19.5882 20.5H21V19.5H19.5882V20.5ZM19.5882 19.5H18V20.5H19.5882V19.5Z" fill="#3F3F3F"/>
</svg>
