<svg width="24" height="24" viewBox="0 0 24 24" fill="none" xmlns="http://www.w3.org/2000/svg">
<path d="M16 8L18 10M18 10L20 8M18 10L18 2.5" stroke="#3F3F3F" stroke-linecap="round"/>
<path d="M15 12L21 12" stroke="#3F3F3F" stroke-linecap="round"/>
<circle cx="4" cy="18.5" r="2.5" stroke="#3F3F3F"/>
<circle cx="10" cy="18.5" r="2.5" stroke="#3F3F3F"/>
<path fill-rule="evenodd" clip-rule="evenodd" d="M1 15C1 14.7239 0.776142 14.5 0.5 14.5C0.223858 14.5 0 14.7239 0 15V17.4997C0 18.052 0.447715 18.4997 1 18.4997C1 18.1491 1.06015 17.8125 1.17071 17.4997H1V15ZM6.82929 17.4997C6.93985 17.8125 7 18.1491 7 18.4997C7 18.1491 7.06015 17.8125 7.17071 17.4997H6.82929ZM12.8293 17.4997C12.9398 17.8125 13 18.1491 13 18.4997C13 18.6792 12.9842 18.8551 12.954 19.0259L13.5528 20.2236C13.6375 20.393 13.8106 20.5 14 20.5H22.5H23.5C23.7761 20.5 24 20.2761 24 20C24 19.7239 23.7761 19.5 23.5 19.5H22.5H14.309L13.4472 17.7761C13.3625 17.6067 13.1894 17.4997 13 17.4997H12.8293Z" fill="#3F3F3F"/>
<path d="M1.5 10.5L0.5 15H13.1304C13.5089 15 13.855 15.2137 14.0245 15.5522L15 17.5H21.5H22.5H23.5V20" stroke="#3F3F3F" stroke-linecap="round" stroke-linejoin="round"/>
</svg>
