<svg width="24" height="24" viewBox="0 0 24 24" fill="none" xmlns="http://www.w3.org/2000/svg">
<g clip-path="url(#clip0_493_25352)">
<circle cx="5" cy="16" r="2.5" stroke="#3F3F3F"/>
<circle cx="11" cy="16" r="2.5" stroke="#3F3F3F"/>
<path fill-rule="evenodd" clip-rule="evenodd" d="M7.82929 15C7.69759 14.6274 7.49436 14.2885 7.23611 14H8.76389C8.50564 14.2885 8.30241 14.6274 8.17071 15H7.82929ZM13.8293 15C13.6976 14.6274 13.4944 14.2885 13.2361 14H16.0858C16.4836 14 16.8651 14.158 17.1464 14.4393L20.5607 17.8536C20.6544 17.9473 20.7816 18 20.9142 18H24C24.2761 18 24.5 18.2239 24.5 18.5C24.5 18.7761 24.2761 19 24 19H20.9142C20.5164 19 20.1349 18.842 19.8536 18.5607L16.4393 15.1464C16.3456 15.0527 16.2184 15 16.0858 15H13.8293ZM2.17071 15C2.30241 14.6274 2.50564 14.2885 2.76389 14H1.5C0.947715 14 0.5 14.4477 0.5 15V16C0.5 16.2761 0.723858 16.5 1 16.5C1.27614 16.5 1.5 16.2761 1.5 16V15H2.17071Z" fill="#3F3F3F"/>
<path d="M1 15.5V12.5C1 11.9477 1.44772 11.5 2 11.5L16.5858 11.5C16.851 11.5 17.1054 11.6054 17.2929 11.7929L24 18.5" stroke="#3F3F3F" stroke-linecap="round"/>
</g>
<defs>
<clipPath id="clip0_493_25352">
<rect width="24" height="24" fill="white"/>
</clipPath>
</defs>
</svg>
