<svg width="24" height="24" viewBox="0 0 24 24" fill="none" xmlns="http://www.w3.org/2000/svg">
<circle cx="5" cy="18" r="2.5" stroke="#3F3F3F"/>
<circle cx="11" cy="18" r="2.5" stroke="#3F3F3F"/>
<path d="M21 20.5C21.2761 20.5 21.5 20.2761 21.5 20C21.5 19.7239 21.2761 19.5 21 19.5V20.5ZM18 19.5C17.7239 19.5 17.5 19.7239 17.5 20C17.5 20.2761 17.7239 20.5 18 20.5V19.5ZM19.0882 17V20H20.0882V17H19.0882ZM19.5882 20.5H21V19.5H19.5882V20.5ZM19.5882 19.5H18V20.5H19.5882V19.5Z" fill="#3F3F3F"/>
<path d="M12 8H17.6533M17.6533 8L19.2533 6.5M17.6533 8H20M17.6533 8L19.2533 9.5M16.0533 4V12M12.8533 6.5L14.4533 8L12.8533 9.5M17.6533 5L16.0533 6.5L14.4533 5M14.4533 11L16.0533 9.5L17.6533 11" stroke="#3F3F3F" stroke-linecap="round" stroke-linejoin="round"/>
<path fill-rule="evenodd" clip-rule="evenodd" d="M21.917 7H22C22.5523 7 23 7.44772 23 8V15C23 15.5523 22.5523 16 22 16H13.2361C13.4944 16.2885 13.6976 16.6274 13.8293 17H22C23.1046 17 24 16.1046 24 15V8C24 6.89543 23.1046 6 22 6H21.6586C21.7723 6.32163 21.8593 6.65585 21.917 7ZM10.3414 6H2C0.895431 6 0 6.89543 0 8V15C0 16.1046 0.89543 17 2 17H2.17071C2.30241 16.6274 2.50564 16.2885 2.76389 16H2C1.44772 16 1 15.5523 1 15V8C1 7.44772 1.44772 7 2 7H10.083C10.1407 6.65585 10.2277 6.32163 10.3414 6ZM7.82929 17C7.69759 16.6274 7.49436 16.2885 7.23611 16H8.76389C8.50564 16.2885 8.30241 16.6274 8.17071 17H7.82929Z" fill="#3F3F3F"/>
</svg>
