<svg width="20" height="21" viewBox="0 0 20 21" fill="none" xmlns="http://www.w3.org/2000/svg">
<path fill-rule="evenodd" clip-rule="evenodd" d="M9.626 3.04305C13.3789 3.09714 16.4579 6.52545 18 9.47523C18 9.47523 17.4573 10.6036 16.9484 11.3259C16.7021 11.6753 16.443 12.0157 16.1707 12.345C15.9766 12.5793 15.7761 12.8076 15.5681 13.0294C13.7094 15.0127 11.04 16.4923 8.22122 15.9179C5.08975 15.2796 2.53539 12.5534 1 9.62127C1 9.62127 1.54516 8.49185 2.05695 7.77063C2.28623 7.44716 2.52687 7.13235 2.77886 6.82692C2.97194 6.59288 3.17212 6.36462 3.37903 6.14284C5.02125 4.38452 7.12842 3.03079 9.626 3.04305ZM9.61287 4.48549C7.52238 4.47755 5.78398 5.66359 4.40866 7.13596C4.22162 7.3361 4.04132 7.54237 3.8667 7.75368C3.63706 8.03207 3.41772 8.31948 3.20867 8.61409C2.99962 8.90835 2.78525 9.27978 2.61525 9.59531C3.96891 11.9065 6.00083 13.994 8.50054 14.5036C10.8299 14.9785 13.0038 13.6738 14.5399 12.0348C14.7276 11.8347 14.909 11.6281 15.0843 11.4164C15.3328 11.116 15.5691 10.8055 15.7938 10.4864C16.0018 10.191 16.2158 9.81889 16.3855 9.503C14.9807 7.11396 12.5772 4.53237 9.61287 4.48549Z" fill="black" fill-opacity="0.6"/>
<path fill-rule="evenodd" clip-rule="evenodd" d="M9.49994 6.6572C11.0705 6.6572 12.3457 7.95286 12.3457 9.5482C12.3457 11.1439 11.0705 12.4392 9.49994 12.4392C7.92977 12.4392 6.65454 11.1439 6.65454 9.5482C6.65454 7.95286 7.92977 6.6572 9.49994 6.6572Z" fill="black" fill-opacity="0.6"/>
</svg>
