<svg width="24" height="25" viewBox="0 0 24 25" fill="none" xmlns="http://www.w3.org/2000/svg">
<path d="M2 4.68398C2 4.12393 2 3.84391 2.10899 3.62999C2.20487 3.44183 2.35785 3.28885 2.54601 3.19298C2.75992 3.08398 3.03995 3.08398 3.6 3.08398H20.4C20.9601 3.08398 21.2401 3.08398 21.454 3.19298C21.6422 3.28885 21.7951 3.44183 21.891 3.62999C22 3.84391 22 4.12393 22 4.68398V5.35338C22 5.62218 22 5.75657 21.9672 5.88155C21.938 5.99229 21.8901 6.09722 21.8255 6.19175C21.7526 6.29842 21.651 6.38644 21.4479 6.56248L15.0521 12.1055C14.849 12.2815 14.7474 12.3696 14.6745 12.4762C14.6099 12.5708 14.562 12.6757 14.5328 12.7864C14.5 12.9114 14.5 13.0458 14.5 13.3146V18.5424C14.5 18.7379 14.5 18.8357 14.4685 18.9202C14.4406 18.9949 14.3953 19.0619 14.3363 19.1155C14.2695 19.1762 14.1787 19.2125 13.9971 19.2851L10.5971 20.6451C10.2296 20.7922 10.0458 20.8657 9.89827 20.835C9.76927 20.8082 9.65605 20.7316 9.58325 20.6217C9.5 20.4961 9.5 20.2982 9.5 19.9024V13.3146C9.5 13.0458 9.5 12.9114 9.46715 12.7864C9.43805 12.6757 9.39014 12.5708 9.32551 12.4762C9.25258 12.3696 9.15102 12.2815 8.94789 12.1055L2.55211 6.56248C2.34898 6.38644 2.24742 6.29842 2.17449 6.19175C2.10986 6.09722 2.06195 5.99229 2.03285 5.88155C2 5.75657 2 5.62217 2 5.35338V4.68398Z" stroke="#38008F" stroke-width="1.5" stroke-linecap="round" stroke-linejoin="round"/>
</svg>
