<svg width="21" height="21" viewBox="0 0 21 21" fill="none" xmlns="http://www.w3.org/2000/svg">
<g clip-path="url(#clip0_1_112)">
<g clip-path="url(#clip1_1_112)">
<path d="M19.674 10.6339C19.674 9.85505 19.6121 9.28668 19.4782 8.69727H10.7725V12.2127H15.8825C15.7796 13.0863 15.2232 14.402 13.9869 15.2861L13.9695 15.4038L16.7221 17.5823L16.9128 17.6018C18.6643 15.9492 19.674 13.5179 19.674 10.6339Z" fill="#4285F4"/>
<path d="M10.7726 19.8962C13.2761 19.8962 15.3779 19.0541 16.913 17.6017L13.987 15.286C13.2041 15.8439 12.1532 16.2333 10.7726 16.2333C8.32061 16.2333 6.23948 14.5809 5.49762 12.2969L5.38888 12.3063L2.52669 14.5693L2.48926 14.6756C4.01404 17.77 7.14606 19.8962 10.7726 19.8962Z" fill="#34A853"/>
<path d="M5.4974 12.2969C5.30165 11.7075 5.18836 11.0759 5.18836 10.4234C5.18836 9.77076 5.30165 9.13926 5.4871 8.54985L5.48191 8.42432L2.58385 6.125L2.48903 6.17108C1.8606 7.45519 1.5 8.8972 1.5 10.4234C1.5 11.9496 1.8606 13.3915 2.48903 14.6756L5.4974 12.2969Z" fill="#FBBC05"/>
<path d="M10.7726 4.61399C12.5138 4.61399 13.6882 5.38234 14.3579 6.02443L16.9748 3.41411C15.3676 1.88794 13.2761 0.951172 10.7726 0.951172C7.14606 0.951172 4.01404 3.07729 2.48926 6.17173L5.48732 8.5505C6.23949 6.26649 8.32061 4.61399 10.7726 4.61399Z" fill="#EB4335"/>
</g>
</g>
<defs>
<clipPath id="clip0_1_112">
<rect width="20" height="20" fill="white" transform="translate(0.5 0.923828)"/>
</clipPath>
<clipPath id="clip1_1_112">
<rect x="1.5" y="0.923828" width="18.1739" height="19" rx="9.08696" fill="white"/>
</clipPath>
</defs>
</svg>
