<svg width="16" height="15" viewBox="0 0 16 15" fill="none" xmlns="http://www.w3.org/2000/svg">
<path d="M13.9998 7.13403H12.7758C12.5598 4.84803 10.7358 3.01803 8.4498 2.80803V1.58403C8.4498 1.33803 8.2458 1.13403 7.9998 1.13403C7.75381 1.13403 7.5498 1.33803 7.5498 1.58403V2.80803C5.2638 3.02403 3.4338 4.84803 3.2238 7.13403H1.9998C1.7538 7.13403 1.5498 7.33803 1.5498 7.58403C1.5498 7.83003 1.7538 8.03403 1.9998 8.03403H3.2238C3.4398 10.32 5.2638 12.15 7.5498 12.36V13.584C7.5498 13.83 7.75381 14.034 7.9998 14.034C8.2458 14.034 8.4498 13.83 8.4498 13.584V12.36C10.7358 12.144 12.5658 10.32 12.7758 8.03403H13.9998C14.2458 8.03403 14.4498 7.83003 14.4498 7.58403C14.4498 7.33803 14.2458 7.13403 13.9998 7.13403ZM7.9998 9.45603C6.9678 9.45603 6.1278 8.61603 6.1278 7.58403C6.1278 6.55203 6.9678 5.71203 7.9998 5.71203C9.03181 5.71203 9.87181 6.55203 9.87181 7.58403C9.87181 8.61603 9.03181 9.45603 7.9998 9.45603Z" fill="#38008F"/>
</svg>
