<svg width="12" height="11" viewBox="0 0 12 11" fill="none" xmlns="http://www.w3.org/2000/svg">
<path d="M1.9858 0.318182V10.5H0.49929V0.318182H1.9858ZM4.10494 10.5V0.318182H5.59144V4.10156H5.68093C5.7671 3.94247 5.89139 3.75852 6.0538 3.54972C6.21621 3.34091 6.44158 3.15862 6.72994 3.00284C7.01829 2.84375 7.39944 2.7642 7.8734 2.7642C8.48988 2.7642 9.04007 2.91998 9.52397 3.23153C10.0079 3.54309 10.3874 3.99219 10.6625 4.57884C10.9409 5.16548 11.0801 5.87145 11.0801 6.69673C11.0801 7.52202 10.9425 8.22964 10.6674 8.8196C10.3923 9.40625 10.0145 9.85866 9.53391 10.1768C9.05333 10.4917 8.50479 10.6491 7.88832 10.6491C7.4243 10.6491 7.0448 10.5713 6.74982 10.4155C6.45816 10.2597 6.22946 10.0774 6.06374 9.86861C5.89802 9.6598 5.77042 9.4742 5.68093 9.31179H5.55664V10.5H4.10494ZM5.56161 6.68182C5.56161 7.21875 5.6395 7.68939 5.79528 8.09375C5.95105 8.49811 6.17643 8.81463 6.47141 9.04332C6.76639 9.2687 7.12766 9.38139 7.55522 9.38139C7.99935 9.38139 8.37056 9.26373 8.66886 9.02841C8.96715 8.78977 9.19253 8.46662 9.34499 8.05895C9.50077 7.65128 9.57866 7.19223 9.57866 6.68182C9.57866 6.17803 9.50243 5.72562 9.34996 5.32457C9.20082 4.92353 8.97544 4.60701 8.67383 4.375C8.37553 4.14299 8.00266 4.02699 7.55522 4.02699C7.12435 4.02699 6.75977 4.13802 6.46147 4.36009C6.16649 4.58215 5.94277 4.89205 5.79031 5.28977C5.63784 5.6875 5.56161 6.15151 5.56161 6.68182Z" fill="#3F3F3F"/>
</svg>
