<svg width="24" height="25" viewBox="0 0 24 25" fill="none" xmlns="http://www.w3.org/2000/svg">
<path d="M6.09436 12.1448C6.03221 11.7442 5.99996 11.3339 5.99996 10.916C5.99996 6.49774 9.60525 2.91602 14.0526 2.91602C18.4999 2.91602 22.1052 6.49774 22.1052 10.916C22.1052 11.9141 21.9213 12.8695 21.5852 13.7505C21.5154 13.9335 21.4804 14.025 21.4646 14.0964C21.4489 14.1672 21.4428 14.217 21.4411 14.2895C21.4394 14.3626 21.4493 14.4432 21.4692 14.6043L21.8717 17.8745C21.9153 18.2285 21.9371 18.4056 21.8782 18.5342C21.8266 18.647 21.735 18.7365 21.6211 18.7855C21.4911 18.8414 21.3146 18.8156 20.9617 18.7638L17.7765 18.2969C17.6101 18.2726 17.527 18.2604 17.4512 18.2608C17.3763 18.2612 17.3245 18.2667 17.2511 18.2822C17.177 18.2977 17.0823 18.3332 16.893 18.4041C16.0097 18.735 15.0524 18.916 14.0526 18.916C13.6344 18.916 13.2237 18.8843 12.8227 18.8233M7.63158 22.916C10.5965 22.916 13 20.4536 13 17.416C13 14.3784 10.5965 11.916 7.63158 11.916C4.66668 11.916 2.26316 14.3784 2.26316 17.416C2.26316 18.0266 2.36028 18.614 2.53955 19.1627C2.61533 19.3947 2.65322 19.5107 2.66566 19.59C2.67864 19.6727 2.68091 19.7191 2.67608 19.8027C2.67145 19.8828 2.65141 19.9733 2.61134 20.1543L2 22.916L4.9948 22.507C5.15827 22.4847 5.24 22.4735 5.31137 22.474C5.38652 22.4745 5.42641 22.4786 5.50011 22.4933C5.5701 22.5072 5.67416 22.544 5.88227 22.6174C6.43059 22.8109 7.01911 22.916 7.63158 22.916Z" stroke="#3F3F3F" stroke-width="1.5" stroke-linecap="round" stroke-linejoin="round"/>
</svg>
