<svg width="24" height="25" viewBox="0 0 24 25" fill="none" xmlns="http://www.w3.org/2000/svg">
<g id="message-chat-circle">
<path id="Icon" d="M6.09436 11.3128C6.03221 10.9122 5.99996 10.5018 5.99996 10.084C5.99996 5.66571 9.60525 2.08398 14.0526 2.08398C18.4999 2.08398 22.1052 5.66571 22.1052 10.084C22.1052 11.0821 21.9213 12.0374 21.5852 12.9185C21.5154 13.1015 21.4804 13.193 21.4646 13.2644C21.4489 13.3352 21.4428 13.385 21.4411 13.4574C21.4394 13.5306 21.4493 13.6112 21.4692 13.7723L21.8717 17.0425C21.9153 17.3965 21.9371 17.5735 21.8782 17.7022C21.8266 17.815 21.735 17.9045 21.6211 17.9535C21.4911 18.0094 21.3146 17.9835 20.9617 17.9318L17.7765 17.4649C17.6101 17.4405 17.527 17.4283 17.4512 17.4288C17.3763 17.4292 17.3245 17.4347 17.2511 17.4501C17.177 17.4657 17.0823 17.5012 16.893 17.5721C16.0097 17.903 15.0524 18.084 14.0526 18.084C13.6344 18.084 13.2237 18.0523 12.8227 17.9913M7.63158 22.084C10.5965 22.084 13 19.6216 13 16.584C13 13.5464 10.5965 11.084 7.63158 11.084C4.66668 11.084 2.26316 13.5464 2.26316 16.584C2.26316 17.1946 2.36028 17.7819 2.53955 18.3307C2.61533 18.5627 2.65322 18.6787 2.66566 18.7579C2.67864 18.8406 2.68091 18.8871 2.67608 18.9707C2.67145 19.0508 2.65141 19.1413 2.61134 19.3223L2 22.084L4.9948 21.675C5.15827 21.6527 5.24 21.6415 5.31137 21.642C5.38652 21.6425 5.42641 21.6466 5.50011 21.6613C5.5701 21.6752 5.67416 21.7119 5.88227 21.7854C6.43059 21.9789 7.01911 22.084 7.63158 22.084Z" stroke="#7C7C7C" stroke-width="1.5" stroke-linecap="round" stroke-linejoin="round"/>
</g>
</svg>
