<svg width="20" height="21" viewBox="0 0 20 21" fill="none" xmlns="http://www.w3.org/2000/svg">
<path d="M9.58317 4.75073H9.94517C12.4845 4.75073 13.7542 4.75073 14.2362 5.20681C14.6528 5.60104 14.8375 6.1818 14.725 6.74424C14.5948 7.39491 13.5583 8.12811 11.4851 9.59451L8.09794 11.9903C6.02476 13.4567 4.98816 14.1899 4.85803 14.8406C4.74555 15.403 4.93018 15.9838 5.34681 16.378C5.82878 16.8341 7.09847 16.8341 9.63784 16.8341H10.4165M6.6665 4.75073C6.6665 6.13144 5.54722 7.25073 4.1665 7.25073C2.78579 7.25073 1.6665 6.13144 1.6665 4.75073C1.6665 3.37002 2.78579 2.25073 4.1665 2.25073C5.54722 2.25073 6.6665 3.37002 6.6665 4.75073ZM18.3332 16.4174C18.3332 17.7981 17.2139 18.9174 15.8332 18.9174C14.4525 18.9174 13.3332 17.7981 13.3332 16.4174C13.3332 15.0367 14.4525 13.9174 15.8332 13.9174C17.2139 13.9174 18.3332 15.0367 18.3332 16.4174Z" stroke="#C4B9ED" stroke-width="1.5" stroke-linecap="round" stroke-linejoin="round"/>
</svg>
