<svg width="20" height="21" viewBox="0 0 20 21" fill="none" xmlns="http://www.w3.org/2000/svg">
<path d="M10 6.08398C8.897 6.08398 8 5.18698 8 4.08398C8 2.98098 8.897 2.08398 10 2.08398C11.103 2.08398 12 2.98098 12 4.08398C12 5.18698 11.103 6.08398 10 6.08398ZM10 8.08398C11.103 8.08398 12 8.98098 12 10.084C12 11.187 11.103 12.084 10 12.084C8.897 12.084 8 11.187 8 10.084C8 8.98098 8.897 8.08398 10 8.08398ZM10 14.084C11.103 14.084 12 14.981 12 16.084C12 17.187 11.103 18.084 10 18.084C8.897 18.084 8 17.187 8 16.084C8 14.981 8.897 14.084 10 14.084Z" fill="#151515"/>
</svg>
