<svg width="22" height="24" viewBox="0 0 22 24" fill="none" xmlns="http://www.w3.org/2000/svg">
<path d="M19.1023 6.20062C19.143 5.87039 19.1642 5.53416 19.1642 5.19295C19.1642 2.325 16.8392 0 13.9712 0H5.2927C4.74679 0 4.28072 0.394219 4.19015 0.932531L0.992341 19.9392C0.877591 20.6212 1.40334 21.2427 2.09489 21.2427H5.26884C5.81475 21.2427 6.28959 20.8488 6.38011 20.3104C6.38011 20.3104 6.3854 20.2789 6.39497 20.2221H6.39501L5.9527 22.8511C5.85164 23.4522 6.315 24 6.92451 24H9.70125C10.1824 24 10.5932 23.6525 10.673 23.178L11.4619 18.4896C11.5979 17.6814 12.2976 17.0896 13.1171 17.0896H13.8465C17.8089 17.0896 21.021 13.8775 21.021 9.91519C21.021 8.38195 20.2631 7.02666 19.1023 6.20062Z" fill="#002987"/>
</svg>
