<svg width="10" height="11" viewBox="0 0 10 11" fill="none" xmlns="http://www.w3.org/2000/svg">
<path d="M5.29403 8.59091V8.05398C5.29403 7.66951 5.37358 7.31818 5.53267 7C5.69508 6.6785 5.9304 6.42164 6.23864 6.2294C6.55019 6.03385 6.92637 5.93608 7.36719 5.93608C7.81795 5.93608 8.19579 6.0322 8.50071 6.22443C8.80563 6.41667 9.03599 6.67353 9.19176 6.99503C9.35085 7.31652 9.4304 7.66951 9.4304 8.05398V8.59091C9.4304 8.97538 9.35085 9.32836 9.19176 9.64986C9.03267 9.96804 8.79901 10.2249 8.49077 10.4205C8.18584 10.6127 7.81132 10.7088 7.36719 10.7088C6.91974 10.7088 6.5419 10.6127 6.23367 10.4205C5.92543 10.2249 5.69176 9.96804 5.53267 9.64986C5.37358 9.32836 5.29403 8.97538 5.29403 8.59091ZM6.45242 8.05398V8.59091C6.45242 8.87595 6.52036 9.13447 6.65625 9.36648C6.79214 9.59848 7.02912 9.71449 7.36719 9.71449C7.70194 9.71449 7.93561 9.59848 8.06818 9.36648C8.20076 9.13447 8.26705 8.87595 8.26705 8.59091V8.05398C8.26705 7.76894 8.20241 7.51042 8.07315 7.27841C7.94721 7.0464 7.71188 6.9304 7.36719 6.9304C7.03575 6.9304 6.80043 7.0464 6.66122 7.27841C6.52202 7.51042 6.45242 7.76894 6.45242 8.05398ZM0.173295 2.7642V2.22727C0.173295 1.8428 0.252841 1.48982 0.411932 1.16832C0.574337 0.846828 0.809659 0.589962 1.1179 0.397727C1.42945 0.205492 1.80563 0.109375 2.24645 0.109375C2.69721 0.109375 3.07505 0.205492 3.37997 0.397727C3.6849 0.589962 3.91525 0.846828 4.07102 1.16832C4.2268 1.48982 4.30469 1.8428 4.30469 2.22727V2.7642C4.30469 3.14867 4.22514 3.50166 4.06605 3.82315C3.91027 4.14134 3.67827 4.3982 3.37003 4.59375C3.0651 4.78598 2.69058 4.8821 2.24645 4.8821C1.79569 4.8821 1.41619 4.78598 1.10795 4.59375C0.80303 4.3982 0.571023 4.14134 0.411932 3.82315C0.252841 3.50166 0.173295 3.14867 0.173295 2.7642ZM1.33665 2.22727V2.7642C1.33665 3.04924 1.40294 3.30776 1.53551 3.53977C1.6714 3.77178 1.90838 3.88778 2.24645 3.88778C2.57789 3.88778 2.8099 3.77178 2.94247 3.53977C3.07836 3.30776 3.14631 3.04924 3.14631 2.7642V2.22727C3.14631 1.94223 3.08168 1.68371 2.95241 1.4517C2.82315 1.2197 2.58783 1.10369 2.24645 1.10369C1.91501 1.10369 1.67969 1.2197 1.54048 1.4517C1.40459 1.68371 1.33665 1.94223 1.33665 2.22727ZM0.645597 10.5L7.6456 0.318182H8.83381L1.83381 10.5H0.645597Z" fill="#3F3F3F"/>
</svg>
