<svg xmlns="http://www.w3.org/2000/svg" width="16" height="16" viewBox="0 0 16 16" fill="none">
  <path d="M9.33301 4.66663H10.8912C11.0542 4.66663 11.1358 4.66663 11.2125 4.68505C11.2805 4.70138 11.3455 4.72831 11.4052 4.76487C11.4725 4.80609 11.5301 4.86374 11.6454 4.97905L14.3539 7.68754C14.4692 7.80284 14.5269 7.86049 14.5681 7.92777C14.6047 7.98742 14.6316 8.05245 14.6479 8.12047C14.6663 8.1972 14.6663 8.27873 14.6663 8.44179V10.3333C14.6663 10.6439 14.6663 10.7992 14.6156 10.9217C14.5479 11.0851 14.4181 11.2149 14.2548 11.2825C14.1323 11.3333 13.977 11.3333 13.6663 11.3333M10.333 11.3333H9.33301M9.33301 11.3333V4.79996C9.33301 4.05322 9.33301 3.67985 9.18768 3.39464C9.05985 3.14376 8.85588 2.93978 8.605 2.81195C8.31978 2.66663 7.94641 2.66663 7.19967 2.66663H3.46634C2.7196 2.66663 2.34624 2.66663 2.06102 2.81195C1.81014 2.93978 1.60616 3.14376 1.47833 3.39464C1.33301 3.67985 1.33301 4.05322 1.33301 4.79996V9.99996C1.33301 10.7363 1.92996 11.3333 2.66634 11.3333M9.33301 11.3333H6.66634M6.66634 11.3333C6.66634 12.4379 5.77091 13.3333 4.66634 13.3333C3.56177 13.3333 2.66634 12.4379 2.66634 11.3333M6.66634 11.3333C6.66634 10.2287 5.77091 9.33329 4.66634 9.33329C3.56177 9.33329 2.66634 10.2287 2.66634 11.3333M13.6663 11.6666C13.6663 12.5871 12.9201 13.3333 11.9997 13.3333C11.0792 13.3333 10.333 12.5871 10.333 11.6666C10.333 10.7462 11.0792 9.99996 11.9997 9.99996C12.9201 9.99996 13.6663 10.7462 13.6663 11.6666Z" stroke="#151515" stroke-width="1.5" stroke-linecap="round" stroke-linejoin="round"/>
</svg>