<svg width="24" height="25" viewBox="0 0 24 25" fill="none" xmlns="http://www.w3.org/2000/svg">
<path d="M14 7.08398H16.3373C16.5818 7.08398 16.7041 7.08398 16.8192 7.11161C16.9213 7.13611 17.0188 7.17652 17.1083 7.23134C17.2092 7.29319 17.2957 7.37966 17.4686 7.55261L21.5314 11.6154C21.7043 11.7883 21.7908 11.8748 21.8526 11.9757C21.9075 12.0652 21.9479 12.1627 21.9724 12.2648C22 12.3798 22 12.5021 22 12.7467V15.584C22 16.0499 22 16.2829 21.9239 16.4667C21.8224 16.7117 21.6277 16.9064 21.3827 17.0079C21.1989 17.084 20.9659 17.084 20.5 17.084M15.5 17.084H14M14 17.084V7.28398C14 6.16388 14 5.60383 13.782 5.176C13.5903 4.79968 13.2843 4.49372 12.908 4.30197C12.4802 4.08398 11.9201 4.08398 10.8 4.08398H5.2C4.0799 4.08398 3.51984 4.08398 3.09202 4.30197C2.71569 4.49372 2.40973 4.79968 2.21799 5.176C2 5.60383 2 6.16388 2 7.28398V15.084C2 16.1886 2.89543 17.084 4 17.084M14 17.084H10M10 17.084C10 18.7408 8.65685 20.084 7 20.084C5.34315 20.084 4 18.7408 4 17.084M10 17.084C10 15.4271 8.65685 14.084 7 14.084C5.34315 14.084 4 15.4271 4 17.084M20.5 17.584C20.5 18.9647 19.3807 20.084 18 20.084C16.6193 20.084 15.5 18.9647 15.5 17.584C15.5 16.2033 16.6193 15.084 18 15.084C19.3807 15.084 20.5 16.2033 20.5 17.584Z" stroke="#D0C5FF" stroke-width="1.2" stroke-linecap="round" stroke-linejoin="round"/>
</svg>
