<svg width="24" height="25" viewBox="0 0 24 25" fill="none" xmlns="http://www.w3.org/2000/svg">
<path d="M15.7997 2.45462C15.3897 2.04462 14.6797 2.32462 14.6797 2.89462V6.38462C14.6797 7.84462 15.9197 9.05462 17.4297 9.05462C18.3797 9.06462 19.6997 9.06462 20.8297 9.06462C21.3997 9.06462 21.6997 8.39462 21.2997 7.99462C19.8597 6.54462 17.2797 3.93462 15.7997 2.45462Z" fill="#38008F"/>
<path d="M14.7596 19.504C12.4096 19.674 12.4096 23.074 14.7596 23.244H20.3196C20.9896 23.244 21.6496 22.994 22.1396 22.544C23.7896 21.104 22.9096 18.224 20.7396 17.954C19.9596 13.264 13.1796 15.044 14.7796 19.514" fill="#38008F"/>
<path d="M21.5 11.4341V14.6841C21.5 14.9841 21.06 15.1241 20.84 14.9141C20.36 14.4441 19.77 14.0841 19.09 13.8741C17.41 13.3541 15.46 13.8641 14.25 15.1441C13.44 15.9841 13.03 17.0541 13.04 18.2141C13.04 18.4041 12.95 18.5741 12.8 18.6841C12 19.2941 11.5 20.2541 11.5 21.3641C11.5 21.4441 11.5 21.5241 11.51 21.6041C11.53 21.9241 11.3 22.2341 10.97 22.2341H8.07C4.99 22.2341 2.5 20.2341 2.5 16.6641V7.81414C2.5 4.24414 4.99 2.24414 8.07 2.24414H12.31C12.86 2.24414 13.31 2.69414 13.31 3.24414V6.13414C13.31 8.51414 15.23 10.4341 17.61 10.4341H20.5C21.05 10.4341 21.5 10.8841 21.5 11.4341Z" fill="#38008F"/>
</svg>
