<svg width="21" height="21" viewBox="0 0 21 21" fill="none" xmlns="http://www.w3.org/2000/svg">
<g clip-path="url(#clip0_1_120)">
<path d="M16.6509 11.4579C16.6421 9.82458 17.371 8.59183 18.8462 7.68395C18.0208 6.4868 16.7738 5.82815 15.1274 5.69908C13.5688 5.57447 11.8653 6.62031 11.2418 6.62031C10.5832 6.62031 9.0729 5.74359 7.88746 5.74359C5.43756 5.78364 2.83398 7.72401 2.83398 11.6715C2.83398 12.8375 3.04473 14.0421 3.46622 15.2852C4.0282 16.9185 6.05662 20.9238 8.17284 20.8571C9.27925 20.8304 10.0608 20.0605 11.5008 20.0605C12.897 20.0605 13.6215 20.8571 14.8552 20.8571C16.989 20.8259 18.8242 17.1855 19.3599 15.5478C16.4972 14.1815 16.6509 11.5424 16.6509 11.4579ZM14.1659 4.15035C15.3645 2.70843 15.2547 1.39557 15.2196 0.923828C14.1615 0.986133 12.9365 1.65369 12.2385 2.47701C11.4701 3.35819 11.0179 4.44853 11.1145 5.67683C12.2604 5.76584 13.3053 5.16949 14.1659 4.15035Z" fill="black"/>
</g>
<defs>
<clipPath id="clip0_1_120">
<rect width="20" height="20" fill="white" transform="translate(0.833984 0.923828)"/>
</clipPath>
</defs>
</svg>
