<svg xmlns="http://www.w3.org/2000/svg" width="24" height="25" viewBox="0 0 24 25" fill="none">
  <path d="M21 10.084H3M16 2.08398V6.08398M8 2.08398V6.08398M7.8 22.084H16.2C17.8802 22.084 18.7202 22.084 19.362 21.757C19.9265 21.4694 20.3854 21.0104 20.673 20.446C21 19.8042 21 18.9641 21 17.284V8.88398C21 7.20383 21 6.36375 20.673 5.72201C20.3854 5.15753 19.9265 4.69858 19.362 4.41096C18.7202 4.08398 17.8802 4.08398 16.2 4.08398H7.8C6.11984 4.08398 5.27976 4.08398 4.63803 4.41096C4.07354 4.69858 3.6146 5.15753 3.32698 5.72201C3 6.36375 3 7.20383 3 8.88398V17.284C3 18.9641 3 19.8042 3.32698 20.446C3.6146 21.0104 4.07354 21.4694 4.63803 21.757C5.27976 22.084 6.11984 22.084 7.8 22.084Z" stroke="#7C7C7C" stroke-width="1.5" stroke-linecap="round" stroke-linejoin="round"/>
</svg>