<svg width="16" height="17" viewBox="0 0 16 17" fill="none" xmlns="http://www.w3.org/2000/svg">
<path d="M14.6466 12.3039C14.6466 12.5439 14.5933 12.7906 14.4799 13.0306C14.3666 13.2706 14.2199 13.4972 14.0266 13.7106C13.6999 14.0706 13.3399 14.3306 12.9333 14.4972C12.5333 14.6639 12.0999 14.7506 11.6333 14.7506C10.9533 14.7506 10.2266 14.5906 9.45992 14.2639C8.69325 13.9372 7.92659 13.4972 7.16659 12.9439C6.39992 12.3839 5.67325 11.7639 4.97992 11.0772C4.29325 10.3839 3.67325 9.65724 3.11992 8.89724C2.57325 8.13724 2.13325 7.37724 1.81325 6.6239C1.49325 5.8639 1.33325 5.13724 1.33325 4.4439C1.33325 3.99057 1.41325 3.55724 1.57325 3.15724C1.73325 2.75057 1.98659 2.37724 2.33992 2.0439C2.76659 1.6239 3.23325 1.41724 3.72659 1.41724C3.91325 1.41724 4.09992 1.45724 4.26659 1.53724C4.43992 1.61724 4.59325 1.73724 4.71325 1.91057L6.25992 4.09057C6.37992 4.25724 6.46659 4.41057 6.52659 4.55724C6.58659 4.69724 6.61992 4.83724 6.61992 4.9639C6.61992 5.1239 6.57325 5.2839 6.47992 5.43724C6.39325 5.59057 6.26659 5.75057 6.10659 5.91057L5.59992 6.43724C5.52659 6.51057 5.49325 6.59724 5.49325 6.7039C5.49325 6.75724 5.49992 6.8039 5.51325 6.85724C5.53325 6.91057 5.55325 6.95057 5.56659 6.99057C5.68659 7.21057 5.89325 7.49724 6.18659 7.8439C6.48659 8.19057 6.80659 8.5439 7.15325 8.89724C7.51325 9.25057 7.85992 9.57724 8.21325 9.87724C8.55992 10.1706 8.84659 10.3706 9.07325 10.4906C9.10659 10.5039 9.14659 10.5239 9.19325 10.5439C9.24659 10.5639 9.29992 10.5706 9.35992 10.5706C9.47325 10.5706 9.55992 10.5306 9.63325 10.4572L10.1399 9.95724C10.3066 9.79057 10.4666 9.6639 10.6199 9.5839C10.7733 9.49057 10.9266 9.4439 11.0933 9.4439C11.2199 9.4439 11.3533 9.47057 11.4999 9.53057C11.6466 9.59057 11.7999 9.67724 11.9666 9.79057L14.1733 11.3572C14.3466 11.4772 14.4666 11.6172 14.5399 11.7839C14.6066 11.9506 14.6466 12.1172 14.6466 12.3039Z" stroke="#38008F" stroke-width="1.2" stroke-miterlimit="10"/>
</svg>
