<svg width="24" height="25" viewBox="0 0 24 25" fill="none" xmlns="http://www.w3.org/2000/svg">
<path fill-rule="evenodd" clip-rule="evenodd" d="M5 3.91797C4.30964 3.91797 3.75 4.47761 3.75 5.16797C3.75 13.5903 10.5777 20.418 19 20.418C19.6904 20.418 20.25 19.8583 20.25 19.168V17.522C20.25 17.0109 19.9388 16.5513 19.4642 16.3614L17.4301 15.5478C16.8265 15.3063 16.1386 15.5679 15.8478 16.1494L15.6708 16.5034C15.5196 16.8059 15.1846 16.9697 14.8529 16.9034L15 16.168C14.8529 16.9034 14.8532 16.9035 14.8529 16.9034L14.8519 16.9032L14.8507 16.903L14.8475 16.9023L14.8385 16.9004L14.8097 16.8942C14.7859 16.889 14.7529 16.8814 14.7114 16.8713C14.6285 16.8512 14.5115 16.8208 14.3665 16.7781C14.0768 16.6929 13.6734 16.5582 13.2046 16.3573C12.2704 15.957 11.0561 15.2847 9.96967 14.1983C8.88325 13.1119 8.21099 11.8976 7.81064 10.9634C7.60973 10.4946 7.47504 10.0911 7.38985 9.80147C7.34721 9.65647 7.31682 9.53951 7.29664 9.45656C7.28655 9.41507 7.279 9.38204 7.27374 9.35822L7.26753 9.32947L7.26566 9.32044L7.26501 9.31729L7.26477 9.31606C7.26472 9.31582 7.26456 9.31506 8 9.16797L7.26456 9.31506C7.19824 8.98341 7.36208 8.6484 7.66459 8.49715L8.01861 8.32014C8.60008 8.0294 8.86163 7.34148 8.62018 6.73787L7.80653 4.70373C7.6167 4.22916 7.15706 3.91797 6.64593 3.91797H5ZM8.88322 9.55506C10.0255 8.86526 10.5165 7.43968 10.0129 6.18078L9.19925 4.14665C8.78162 3.10258 7.77042 2.41797 6.64593 2.41797H5C3.48122 2.41797 2.25 3.64919 2.25 5.16797C2.25 14.4187 9.74923 21.918 19 21.918C20.5188 21.918 21.75 20.6868 21.75 19.168V17.522C21.75 16.3975 21.0654 15.3863 20.0213 14.9687L17.9872 14.1551C16.7283 13.6515 15.3027 14.1424 14.6129 15.2847C14.3906 15.2136 14.111 15.1139 13.7954 14.9786C12.9796 14.629 11.9439 14.0512 11.0303 13.1376C10.1167 12.2241 9.53901 11.1884 9.18936 10.3725C9.05411 10.0569 8.95433 9.77738 8.88322 9.55506Z" fill="#3F3F3F"/>
</svg>
