<svg width="24" height="24" viewBox="0 0 24 24" fill="none" xmlns="http://www.w3.org/2000/svg">
<g clip-path="url(#clip0_493_33192)">
<path fill-rule="evenodd" clip-rule="evenodd" d="M2.75 14.75V17C2.75 18.24 3.76 19.25 5 19.25H5.35001C5.42499 18.9887 5.53767 18.7429 5.68182 18.519C6.17022 17.7556 7.02551 17.25 8 17.25C8.9745 17.25 9.82981 17.7556 10.3182 18.519C10.4623 18.7429 10.575 18.9887 10.65 19.25H13.3533C13.4882 18.7722 13.7488 18.3475 14.0973 18.0136C14.0335 18.3325 14 18.6623 14 19C14 20.4828 14.6455 21.8149 15.6708 22.7305C14.5582 22.5981 13.6505 21.8028 13.3533 20.75H10.6467C10.3206 21.9049 9.25994 22.75 8 22.75C6.74006 22.75 5.67937 21.9049 5.35331 20.75H5C2.93 20.75 1.25 19.07 1.25 17V14V6C1.25 3.38 3.38 1.25 6 1.25H15C15.41 1.25 15.75 1.59 15.75 2V4.25H16.84C17.83 4.25 18.74 4.78001 19.23 5.64001L20.9233 8.60085C20.9291 8.61039 20.9346 8.62011 20.94 8.63L22.65 11.63C22.71 11.74 22.75 11.87 22.75 12V14V15.6927C21.8338 14.6547 20.4934 14 19 14C18.5514 14 18.1167 14.0591 17.7031 14.1699C17.422 13.8589 17.25 13.448 17.25 13V10C17.25 9.04 18.03 8.25 19 8.25L17.93 6.38C17.71 5.99001 17.29 5.75 16.84 5.75H15.75V12C15.75 13.52 14.52 14.75 13 14.75H2.75ZM21.25 12.2V13.25H19C18.86 13.25 18.75 13.14 18.75 13V10C18.75 9.86 18.86 9.75 19 9.75H19.85L21.25 12.2ZM8 21.25C7.31 21.25 6.75 20.69 6.75 20C6.75 19.31 7.31 18.75 8 18.75C8.69 18.75 9.25 19.31 9.25 20C9.25 20.69 8.69 21.25 8 21.25ZM14.25 5V2.75H6C4.21 2.75 2.75 4.21 2.75 6V13.25H13C13.69 13.25 14.25 12.69 14.25 12V5Z" fill="white"/>
<path d="M19 21V17M17 19H21" stroke="white" stroke-width="1.5" stroke-linecap="round" stroke-linejoin="round"/>
</g>
<defs>
<clipPath id="clip0_493_33192">
<rect width="24" height="24" fill="white"/>
</clipPath>
</defs>
</svg>
