<svg width="32" height="33" viewBox="0 0 32 33" fill="none" xmlns="http://www.w3.org/2000/svg">
<path d="M12 7.04297V25.043" stroke="#38008F" stroke-width="1.5" stroke-linecap="round" stroke-linejoin="round"/>
<path d="M3 20.9417C2.99996 20.7114 3.07957 20.4881 3.22536 20.3097C3.37114 20.1313 3.57412 20.0088 3.7999 19.963C4.70332 19.7784 5.51527 19.2874 6.09839 18.5731C6.68151 17.8588 7 16.9651 7 16.043C7 15.1209 6.68151 14.2271 6.09839 13.5128C5.51527 12.7985 4.70332 12.3075 3.7999 12.123C3.57412 12.0771 3.37114 11.9546 3.22536 11.7763C3.07957 11.5979 2.99996 11.3746 3 11.1442V8.04297C3 7.77775 3.10536 7.5234 3.29289 7.33586C3.48043 7.14833 3.73478 7.04297 4 7.04297H28C28.2652 7.04297 28.5196 7.14833 28.7071 7.33586C28.8946 7.5234 29 7.77775 29 8.04297V11.1442C29 11.3746 28.9204 11.5979 28.7746 11.7763C28.6289 11.9546 28.4259 12.0771 28.2001 12.123C27.2967 12.3075 26.4847 12.7985 25.9016 13.5128C25.3185 14.2271 25 15.1209 25 16.043C25 16.9651 25.3185 17.8589 25.9016 18.5731C26.4847 19.2874 27.2967 19.7784 28.2001 19.963C28.4259 20.0088 28.6289 20.1313 28.7746 20.3097C28.9204 20.4881 29 20.7114 29 20.9417V24.043C29 24.3082 28.8946 24.5625 28.7071 24.7501C28.5196 24.9376 28.2652 25.043 28 25.043H4C3.73478 25.043 3.48043 24.9376 3.29289 24.7501C3.10536 24.5625 3 24.3082 3 24.043V20.9417Z" stroke="#38008F" stroke-width="1.5" stroke-linecap="round" stroke-linejoin="round"/>
</svg>
