<svg width="17" height="16" viewBox="0 0 17 16" fill="none" xmlns="http://www.w3.org/2000/svg">
<g id="trash-02 1">
<path id="Vector" d="M11.1667 3.9987V3.46536C11.1667 2.71863 11.1667 2.34526 11.0213 2.06004C10.8935 1.80916 10.6895 1.60518 10.4387 1.47736C10.1535 1.33203 9.78007 1.33203 9.03333 1.33203H7.96667C7.21993 1.33203 6.84656 1.33203 6.56135 1.47736C6.31046 1.60518 6.10649 1.80916 5.97866 2.06004C5.83333 2.34526 5.83333 2.71863 5.83333 3.46536V3.9987M2.5 3.9987H14.5M13.1667 3.9987V11.4654C13.1667 12.5855 13.1667 13.1455 12.9487 13.5734C12.7569 13.9497 12.451 14.2556 12.0747 14.4474C11.6468 14.6654 11.0868 14.6654 9.96667 14.6654H7.03333C5.91323 14.6654 5.35317 14.6654 4.92535 14.4474C4.54903 14.2556 4.24307 13.9497 4.05132 13.5734C3.83333 13.1455 3.83333 12.5855 3.83333 11.4654V3.9987" stroke="#FF4646" stroke-width="1.2" stroke-linecap="round" stroke-linejoin="round"/>
</g>
</svg>
