<svg width="24" height="25" viewBox="0 0 24 25" fill="none" xmlns="http://www.w3.org/2000/svg">
<path d="M8.5 14.7507C8.5 16.0393 9.54467 17.084 10.8333 17.084H13C14.3807 17.084 15.5 15.9647 15.5 14.584C15.5 13.2033 14.3807 12.084 13 12.084H11C9.61929 12.084 8.5 10.9647 8.5 9.58398C8.5 8.20327 9.61929 7.08398 11 7.08398H13.1667C14.4553 7.08398 15.5 8.12865 15.5 9.41732M12 5.58398V7.08398M12 17.084V18.584M22 12.084C22 17.6068 17.5228 22.084 12 22.084C6.47715 22.084 2 17.6068 2 12.084C2 6.56114 6.47715 2.08398 12 2.08398C17.5228 2.08398 22 6.56114 22 12.084Z" stroke="#C4B9ED" stroke-width="1.2" stroke-linecap="round" stroke-linejoin="round"/>
</svg>
