<svg width="24" height="25" viewBox="0 0 24 25" fill="none" xmlns="http://www.w3.org/2000/svg">
<g id="element-plus">
<g id="vuesax/outline/element-plus">
<g id="element-plus_2">
<path id="Vector" d="M19.77 12.1641H15.73C13.72 12.1641 12.75 11.1841 12.75 9.18406V5.14406C12.75 3.13406 13.73 2.16406 15.73 2.16406H19.77C21.78 2.16406 22.75 3.14406 22.75 5.14406V9.18406C22.75 11.1841 21.77 12.1641 19.77 12.1641ZM15.73 3.66406C14.55 3.66406 14.25 3.96406 14.25 5.14406V9.18406C14.25 10.3641 14.55 10.6641 15.73 10.6641H19.77C20.95 10.6641 21.25 10.3641 21.25 9.18406V5.14406C21.25 3.96406 20.95 3.66406 19.77 3.66406H15.73Z" fill="#464646"/>
<path id="Vector_2" d="M8.27 12.1641H4.23C2.22 12.1641 1.25 11.2741 1.25 9.43406V4.89406C1.25 3.05406 2.23 2.16406 4.23 2.16406H8.27C10.28 2.16406 11.25 3.05406 11.25 4.89406V9.42406C11.25 11.2741 10.27 12.1641 8.27 12.1641ZM4.23 3.66406C2.89 3.66406 2.75 4.04406 2.75 4.89406V9.42406C2.75 10.2841 2.89 10.6541 4.23 10.6541H8.27C9.61 10.6541 9.75 10.2741 9.75 9.42406V4.89406C9.75 4.03406 9.61 3.66406 8.27 3.66406H4.23Z" fill="#464646"/>
<path id="Vector_3" d="M8.27 23.6641H4.23C2.22 23.6641 1.25 22.6841 1.25 20.6841V16.6441C1.25 14.6341 2.23 13.6641 4.23 13.6641H8.27C10.28 13.6641 11.25 14.6441 11.25 16.6441V20.6841C11.25 22.6841 10.27 23.6641 8.27 23.6641ZM4.23 15.1641C3.05 15.1641 2.75 15.4641 2.75 16.6441V20.6841C2.75 21.8641 3.05 22.1641 4.23 22.1641H8.27C9.45 22.1641 9.75 21.8641 9.75 20.6841V16.6441C9.75 15.4641 9.45 15.1641 8.27 15.1641H4.23Z" fill="#464646"/>
<path id="Vector_4" d="M20.5 19.1641H14.5C14.09 19.1641 13.75 18.8241 13.75 18.4141C13.75 18.0041 14.09 17.6641 14.5 17.6641H20.5C20.91 17.6641 21.25 18.0041 21.25 18.4141C21.25 18.8241 20.91 19.1641 20.5 19.1641Z" fill="#464646"/>
<path id="Vector_5" d="M17.5 22.1641C17.09 22.1641 16.75 21.8241 16.75 21.4141V15.4141C16.75 15.0041 17.09 14.6641 17.5 14.6641C17.91 14.6641 18.25 15.0041 18.25 15.4141V21.4141C18.25 21.8241 17.91 22.1641 17.5 22.1641Z" fill="#464646"/>
</g>
</g>
</g>
</svg>
