<svg width="11" height="12" viewBox="0 0 11 12" fill="none" xmlns="http://www.w3.org/2000/svg">
<path d="M5.13352 3.86364V5.05682H0.818182V3.86364H5.13352ZM2.00142 11.5V2.97869C2.00142 2.50142 2.10582 2.10535 2.31463 1.79048C2.52344 1.4723 2.80019 1.23532 3.14489 1.07955C3.48958 0.920454 3.86411 0.840908 4.26847 0.840908C4.56676 0.840908 4.82197 0.865767 5.03409 0.915483C5.24621 0.961884 5.40365 1.00497 5.50639 1.04474L5.15838 2.24787C5.08878 2.22798 4.99929 2.20478 4.88991 2.17827C4.78054 2.14844 4.64796 2.13352 4.49219 2.13352C4.13092 2.13352 3.8724 2.22301 3.71662 2.40199C3.56416 2.58097 3.48793 2.83949 3.48793 3.17756V11.5H2.00142ZM10.2319 3.86364V5.05682H6.06072V3.86364H10.2319ZM7.17933 2.03409H8.66584V9.25781C8.66584 9.54616 8.70893 9.76326 8.7951 9.90909C8.88127 10.0516 8.99231 10.1494 9.1282 10.2024C9.2674 10.2521 9.41821 10.277 9.58061 10.277C9.69993 10.277 9.80433 10.2687 9.89382 10.2521C9.98331 10.2356 10.0529 10.2223 10.1026 10.2124L10.3711 11.4403C10.2849 11.4735 10.1623 11.5066 10.0032 11.5398C9.84411 11.5762 9.64524 11.5961 9.40661 11.5994C9.01551 11.6061 8.65092 11.5365 8.31286 11.3906C7.97479 11.2448 7.70135 11.0194 7.49254 10.7145C7.28374 10.4096 7.17933 10.0268 7.17933 9.56605V2.03409Z" fill="#3F3F3F"/>
</svg>
