<svg width="20" height="20" viewBox="0 0 20 20" fill="none" xmlns="http://www.w3.org/2000/svg">
<g id="import">
<g id="vuesax/outline/import">
<g id="import_2">
<path id="Vector" d="M12.7164 18.5422H7.28307C3.19141 18.5422 1.44141 16.7922 1.44141 12.7005V12.5922C1.44141 8.89222 2.89974 7.10888 6.16641 6.80055C6.49974 6.77555 6.81641 7.02555 6.84974 7.36722C6.88307 7.70888 6.63307 8.01722 6.28307 8.05055C3.66641 8.29222 2.69141 9.52555 2.69141 12.6005V12.7089C2.69141 16.1005 3.89141 17.3005 7.28307 17.3005H12.7164C16.1081 17.3005 17.3081 16.1005 17.3081 12.7089V12.6005C17.3081 9.50888 16.3164 8.27555 13.6497 8.05055C13.3081 8.01722 13.0497 7.71722 13.0831 7.37555C13.1164 7.03388 13.4081 6.77555 13.7581 6.80888C17.0747 7.09222 18.5581 8.88388 18.5581 12.6089V12.7172C18.5581 16.7922 16.8081 18.5422 12.7164 18.5422Z" fill="white"/>
<path id="Vector_2" d="M10 13.0243C9.65833 13.0243 9.375 12.741 9.375 12.3993V1.66602C9.375 1.32435 9.65833 1.04102 10 1.04102C10.3417 1.04102 10.625 1.32435 10.625 1.66602V12.3993C10.625 12.7493 10.3417 13.0243 10 13.0243Z" fill="white"/>
<path id="Vector_3" d="M10.0005 13.9576C9.84219 13.9576 9.68385 13.8992 9.55885 13.7742L6.76719 10.9826C6.52552 10.7409 6.52552 10.3409 6.76719 10.0992C7.00885 9.85755 7.40885 9.85755 7.65052 10.0992L10.0005 12.4492L12.3505 10.0992C12.5922 9.85755 12.9922 9.85755 13.2339 10.0992C13.4755 10.3409 13.4755 10.7409 13.2339 10.9826L10.4422 13.7742C10.3172 13.8992 10.1589 13.9576 10.0005 13.9576Z" fill="white"/>
</g>
</g>
</g>
</svg>
