<svg width="20" height="21" viewBox="0 0 20 21" fill="none" xmlns="http://www.w3.org/2000/svg">
<g clip-path="url(#clip0_493_24959)">
<path d="M17.1829 7.54183C16.3079 3.69183 12.9496 1.9585 9.99959 1.9585C9.99959 1.9585 9.99959 1.9585 9.99126 1.9585C7.04959 1.9585 3.68292 3.6835 2.80792 7.5335C1.83292 11.8335 4.46626 15.4752 6.84959 17.7668C7.73292 18.6168 8.86626 19.0418 9.99959 19.0418C11.1329 19.0418 12.2663 18.6168 13.1413 17.7668C15.5246 15.4752 18.1579 11.8418 17.1829 7.54183ZM9.99959 11.7168C8.54959 11.7168 7.37459 10.5418 7.37459 9.09183C7.37459 7.64183 8.54959 6.46683 9.99959 6.46683C11.4496 6.46683 12.6246 7.64183 12.6246 9.09183C12.6246 10.5418 11.4496 11.7168 9.99959 11.7168Z" fill="#7C7C7C"/>
</g>
<defs>
<clipPath id="clip0_493_24959">
<rect width="20" height="20" fill="white" transform="translate(0 0.5)"/>
</clipPath>
</defs>
</svg>
