<svg width="15" height="12" viewBox="0 0 15 12" fill="none" xmlns="http://www.w3.org/2000/svg">
<path d="M-0.000710189 11.5V3.86364H1.42614V5.10653H1.5206C1.67969 4.68561 1.93987 4.35748 2.30114 4.12216C2.66241 3.88352 3.09493 3.7642 3.59872 3.7642C4.10914 3.7642 4.5367 3.88352 4.88139 4.12216C5.2294 4.3608 5.48627 4.68892 5.65199 5.10653H5.73153C5.91383 4.69886 6.20384 4.37405 6.60156 4.1321C6.99929 3.88684 7.47325 3.7642 8.02344 3.7642C8.71615 3.7642 9.28125 3.9813 9.71875 4.41548C10.1596 4.84967 10.38 5.50426 10.38 6.37926V11.5H8.89347V6.51847C8.89347 6.00142 8.7526 5.62689 8.47088 5.39489C8.18916 5.16288 7.85275 5.04688 7.46165 5.04688C6.97775 5.04688 6.60156 5.19602 6.3331 5.49432C6.06463 5.7893 5.9304 6.1688 5.9304 6.63281V11.5H4.44886V6.42401C4.44886 6.00971 4.3196 5.67661 4.06108 5.42472C3.80256 5.17282 3.46615 5.04688 3.05185 5.04688C2.77012 5.04688 2.50994 5.12145 2.27131 5.2706C2.03599 5.41643 1.84541 5.62026 1.69957 5.8821C1.55706 6.14394 1.4858 6.44721 1.4858 6.7919V11.5H-0.000710189ZM12.3723 11.5V3.86364H13.8588V11.5H12.3723ZM13.123 2.68537C12.8645 2.68537 12.6425 2.59919 12.4569 2.42685C12.2746 2.25118 12.1834 2.04238 12.1834 1.80043C12.1834 1.55516 12.2746 1.34635 12.4569 1.17401C12.6425 0.998342 12.8645 0.910511 13.123 0.910511C13.3816 0.910511 13.602 0.998342 13.7843 1.17401C13.9699 1.34635 14.0627 1.55516 14.0627 1.80043C14.0627 2.04238 13.9699 2.25118 13.7843 2.42685C13.602 2.59919 13.3816 2.68537 13.123 2.68537Z" fill="#3F3F3F"/>
</svg>
