<svg width="23" height="22" viewBox="0 0 23 22" fill="none" xmlns="http://www.w3.org/2000/svg">
<path d="M16.5914 21.6777H6.74414C6.03219 21.6777 5.45508 21.1006 5.45508 20.3887V1.61133C5.45508 0.899379 6.03219 0.322266 6.74414 0.322266H16.5913C17.3033 0.322266 17.8804 0.899379 17.8804 1.61133V20.3887C17.8804 21.1006 17.3033 21.6777 16.5914 21.6777Z" fill="#EAF6FF"/>
<path d="M16.5918 0.322266H15.0879C15.7998 0.322266 16.377 0.899422 16.377 1.61133V20.3887C16.377 21.1006 15.7998 21.6777 15.0879 21.6777H16.5918C17.3037 21.6777 17.8809 21.1006 17.8809 20.3887V1.61133C17.8809 0.899422 17.3037 0.322266 16.5918 0.322266Z" fill="#D8ECFE"/>
<path d="M16.5933 22H6.74609C5.85759 22 5.13477 21.2772 5.13477 20.3887V1.61133C5.13477 0.72282 5.85759 0 6.74609 0H16.5933C17.4818 0 18.2047 0.72282 18.2047 1.61133V20.3887C18.2047 21.2772 17.4818 22 16.5933 22ZM6.74609 0.644531C6.21298 0.644531 5.7793 1.07826 5.7793 1.61133V20.3887C5.7793 20.9217 6.21298 21.3555 6.74609 21.3555H16.5933C17.1264 21.3555 17.5601 20.9217 17.5601 20.3887V1.61133C17.5601 1.07826 17.1264 0.644531 16.5933 0.644531H6.74609Z" fill="#3D6D93"/>
<path d="M13.9677 2.18238H9.37305C9.20693 2.18238 9.07227 2.04772 9.07227 1.8816V0.322266H14.2685V1.8816C14.2685 2.04772 14.1338 2.18238 13.9677 2.18238Z" fill="#3D6D93"/>
<path d="M9.17383 7.08789H10.4629V10.7186H9.17383V7.08789Z" fill="#3D6D93"/>
<path d="M12.8848 7.08789H14.1738V10.7186H12.8848V7.08789Z" fill="#3D6D93"/>
<path d="M8.38699 6.70533L11.5381 4.16287C11.6168 4.09936 11.7291 4.09936 11.8079 4.16287L14.9589 6.70533C15.1166 6.83256 15.0267 7.08736 14.824 7.08736H8.52191C8.31927 7.08736 8.2293 6.8326 8.38699 6.70533Z" fill="#AEE69C"/>
<path d="M14.9609 6.70536L11.8098 4.1629C11.7311 4.09935 11.6187 4.09935 11.54 4.1629L10.8613 4.71049L13.3337 6.70536C13.4914 6.83259 13.4014 7.08739 13.1988 7.08739H14.826C15.0286 7.08739 15.1186 6.83259 14.9609 6.70536Z" fill="#89DAA4"/>
<path d="M8.47852 12.0078H14.8675C14.9624 12.0078 15.0393 11.9309 15.0393 11.8359V10.8906C15.0393 10.7957 14.9624 10.7188 14.8675 10.7188H8.47852C8.3836 10.7188 8.30664 10.7957 8.30664 10.8906V11.8359C8.30664 11.9309 8.3836 12.0078 8.47852 12.0078Z" fill="#AEE69C"/>
<path d="M14.8691 10.7188H13.5801C13.675 10.7188 13.752 10.7957 13.752 10.8906V11.8359C13.752 11.9309 13.675 12.0078 13.5801 12.0078H14.8691C14.9641 12.0078 15.041 11.9309 15.041 11.8359V10.8906C15.041 10.7957 14.9641 10.7188 14.8691 10.7188Z" fill="#89DAA4"/>
<path d="M12.6152 14.0078H15.6482C15.8143 14.0078 15.949 14.1425 15.949 14.3086V15.7333C15.949 15.8994 15.8143 16.034 15.6482 16.034H12.6152C12.4491 16.034 12.3145 15.8994 12.3145 15.7333V14.3086C12.3145 14.1425 12.4491 14.0078 12.6152 14.0078Z" fill="#B3DAFE"/>
<path d="M15.6504 14.0078H14.3613C14.5274 14.0078 14.6621 14.1425 14.6621 14.3086V15.7332C14.6621 15.8993 14.5274 16.034 14.3613 16.034H15.6504C15.8165 16.034 15.9512 15.8993 15.9512 15.7332V14.3086C15.9512 14.1425 15.8165 14.0078 15.6504 14.0078Z" fill="#8AC9FE"/>
<path d="M10.7264 16.034H7.69336C7.52724 16.034 7.39258 15.8994 7.39258 15.7333V14.3086C7.39258 14.1425 7.52724 14.0078 7.69336 14.0078H10.7264C10.8925 14.0078 11.0271 14.1425 11.0271 14.3086V15.7333C11.0271 15.8994 10.8925 16.034 10.7264 16.034Z" fill="#B3DAFE"/>
<path d="M15.9527 18.291H7.39453C7.21655 18.291 7.07227 18.1468 7.07227 17.9688C7.07227 17.7907 7.21655 17.6465 7.39453 17.6465H15.9527C16.1307 17.6465 16.275 17.7907 16.275 17.9688C16.275 18.1468 16.1307 18.291 15.9527 18.291Z" fill="#C4E2FF"/>
<path d="M14.0191 19.5801H7.39453C7.21655 19.5801 7.07227 19.4358 7.07227 19.2578C7.07227 19.0798 7.21655 18.9355 7.39453 18.9355H14.0191C14.1971 18.9355 14.3414 19.0798 14.3414 19.2578C14.3414 19.4358 14.1971 19.5801 14.0191 19.5801Z" fill="#C4E2FF"/>
<path d="M10.7207 14.0078H9.43164C9.59776 14.0078 9.73242 14.1425 9.73242 14.3086V15.7332C9.73242 15.8993 9.59776 16.034 9.43164 16.034H10.7207C10.8868 16.034 11.0215 15.8993 11.0215 15.7332V14.3086C11.0215 14.1425 10.8868 14.0078 10.7207 14.0078Z" fill="#8AC9FE"/>
</svg>
