<svg width="24" height="25" viewBox="0 0 24 25" fill="none" xmlns="http://www.w3.org/2000/svg">
<path fill-rule="evenodd" clip-rule="evenodd" d="M10.7988 19.084C10.7988 19.7743 11.3585 20.334 12.0488 20.334C12.7392 20.334 13.2988 19.7743 13.2988 19.084H14.7988C14.7988 20.6028 13.5676 21.834 12.0488 21.834C10.53 21.834 9.29883 20.6028 9.29883 19.084H10.7988Z" fill="#3F3F3F"/>
<path fill-rule="evenodd" clip-rule="evenodd" d="M9.29829 4.63367C9.5073 3.32999 10.6373 2.33398 11.9999 2.33398C13.0141 2.33398 13.899 2.8855 14.3716 3.70516C14.8642 3.46743 15.4167 3.33398 15.9999 3.33398C18.0709 3.33398 19.7499 5.01292 19.7499 7.08398C19.7499 8.28406 19.1858 9.35177 18.3108 10.0374L18.596 12.5503C18.6488 13.0155 18.8459 13.4694 19.1792 13.8609C19.8759 14.6794 19.8978 15.7083 19.4437 16.5086C18.9969 17.2958 18.114 17.834 17.0549 17.834H6.94482C5.88575 17.834 5.00283 17.2958 4.55606 16.5086C4.10189 15.7083 4.12386 14.6794 4.82056 13.8609C5.15385 13.4694 5.35096 13.0155 5.40376 12.5503L5.79505 9.10269C6.02513 7.07553 7.43041 5.43841 9.29829 4.63367ZM16.8797 10.73C16.5972 10.798 16.3025 10.834 15.9999 10.834C13.9288 10.834 12.2499 9.15505 12.2499 7.08398C12.2499 6.14899 12.5927 5.2933 13.1582 4.63701C12.9828 4.16812 12.53 3.83398 11.9999 3.83398C11.3171 3.83398 10.7637 4.38745 10.7637 5.07019V5.16094C10.7637 5.48152 10.5599 5.76665 10.2566 5.8705C8.60728 6.43521 7.45836 7.74866 7.28548 9.27185L6.89419 12.7194C6.80605 13.496 6.47939 14.2263 5.96278 14.8332C5.69959 15.1424 5.69821 15.482 5.86063 15.7682C6.03046 16.0675 6.40406 16.334 6.94482 16.334H17.0549C17.5957 16.334 17.9693 16.0675 18.1391 15.7682C18.3015 15.482 18.3001 15.1424 18.0369 14.8332C17.5203 14.2263 17.1937 13.496 17.1055 12.7194L16.8797 10.73ZM15.9999 4.83398C15.4145 4.83398 14.8828 5.05653 14.4821 5.42292C14.0311 5.83536 13.7499 6.42629 13.7499 7.08398C13.7499 8.32662 14.7572 9.33398 15.9999 9.33398C16.4155 9.33398 16.8027 9.22197 17.1354 9.02696C17.8038 8.63521 18.2499 7.91127 18.2499 7.08398C18.2499 5.84134 17.2425 4.83398 15.9999 4.83398Z" fill="#3F3F3F"/>
</svg>
