<svg width="41" height="40" viewBox="0 0 41 40" fill="none" xmlns="http://www.w3.org/2000/svg">
<rect x="0.333008" width="40" height="40" rx="6" fill="#2CD6F9" fill-opacity="0.1"/>
<path d="M30.333 18H10.333M19.333 27H27.133C28.2531 27 28.8132 27 29.241 26.782C29.6173 26.5903 29.9233 26.2843 30.115 25.908C30.333 25.4802 30.333 24.9201 30.333 23.8V16.2C30.333 15.0799 30.333 14.5198 30.115 14.092C29.9233 13.7157 29.6173 13.4097 29.241 13.218C28.8132 13 28.2531 13 27.133 13H25.333M19.333 27L21.333 29M19.333 27L21.333 25M15.333 27H13.533C12.4129 27 11.8528 27 11.425 26.782C11.0487 26.5903 10.7427 26.2843 10.551 25.908C10.333 25.4802 10.333 24.9201 10.333 23.8V16.2C10.333 15.0799 10.333 14.5198 10.551 14.092C10.7427 13.7157 11.0487 13.4097 11.425 13.218C11.8528 13 12.4129 13 13.533 13H21.333M21.333 13L19.333 15M21.333 13L19.333 11" stroke="#2CD6F9" stroke-width="2" stroke-linecap="round" stroke-linejoin="round"/>
</svg>
