<svg width="20" height="21" viewBox="0 0 20 21" fill="none" xmlns="http://www.w3.org/2000/svg">
<path d="M1.66675 10.0841H10.0001M7.50008 3.4174V16.7507M2.50008 7.58407L5.00008 10.0841L2.50008 12.5841M10.0001 5.08407L7.50008 7.58407L5.00008 5.08407M5.00008 15.0841L7.50008 12.5841L8.75008 13.8341M16.6667 12.1967V3.4174C16.6667 2.49692 15.9206 1.75073 15.0001 1.75073C14.0796 1.75073 13.3334 2.49692 13.3334 3.4174V12.1967C12.3371 12.773 11.6667 13.8503 11.6667 15.0841C11.6667 16.925 13.1591 18.4174 15.0001 18.4174C16.841 18.4174 18.3334 16.925 18.3334 15.0841C18.3334 13.8503 17.6631 12.773 16.6667 12.1967Z" stroke="#151515" stroke-linecap="round" stroke-linejoin="round"/>
</svg>
