<svg width="25" height="25" viewBox="0 0 25 25" fill="none" xmlns="http://www.w3.org/2000/svg">
<path d="M11.9551 22.25C6.30508 22.25 1.70508 17.65 1.70508 12C1.70508 6.35 6.30508 1.75 11.9551 1.75C17.6051 1.75 22.2051 6.35 22.2051 12C22.2051 17.65 17.6051 22.25 11.9551 22.25ZM11.9551 3.25C7.12508 3.25 3.20508 7.18 3.20508 12C3.20508 16.82 7.12508 20.75 11.9551 20.75C16.7851 20.75 20.7051 16.82 20.7051 12C20.7051 7.18 16.7851 3.25 11.9551 3.25Z" fill="#464646"/>
<path d="M22.4528 23.2499C22.2628 23.2499 22.0728 23.1799 21.9228 23.0299L19.9228 21.0299C19.7833 20.8888 19.7051 20.6984 19.7051 20.4999C19.7051 20.3015 19.7833 20.1111 19.9228 19.9699C20.2128 19.6799 20.6928 19.6799 20.9828 19.9699L22.9828 21.9699C23.2728 22.2599 23.2728 22.7399 22.9828 23.0299C22.8328 23.1799 22.6428 23.2499 22.4528 23.2499Z" fill="#464646"/>
</svg>
