<svg width="16" height="17" viewBox="0 0 16 17" fill="none" xmlns="http://www.w3.org/2000/svg">
<g clip-path="url(#clip0_366_26278)">
<path d="M1.6 6.48398C1.6 3.83678 3.7528 1.68398 6.4 1.68398C9.0472 1.68398 11.2 3.83678 11.2 6.48398C11.2 9.13118 9.0472 11.284 6.4 11.284C3.7528 11.284 1.6 9.13118 1.6 6.48398ZM15.7656 14.7184L11.4496 10.4016C12.3247 9.28321 12.8001 7.90403 12.8 6.48398C12.8 2.95518 9.9288 0.0839844 6.4 0.0839844C2.8712 0.0839844 0 2.95518 0 6.48398C0 10.0128 2.8712 12.884 6.4 12.884C7.81996 12.8836 9.19898 12.4082 10.3176 11.5336L14.6344 15.8496C14.7085 15.9241 14.7967 15.9833 14.8937 16.0237C14.9908 16.064 15.0949 16.0848 15.2 16.0848C15.3051 16.0848 15.4092 16.064 15.5063 16.0237C15.6033 15.9833 15.6915 15.9241 15.7656 15.8496C15.84 15.7754 15.8989 15.6872 15.9392 15.5901C15.9794 15.4931 16.0002 15.3891 16.0002 15.284C16.0002 15.1789 15.9794 15.0749 15.9392 14.9778C15.8989 14.8808 15.84 14.7926 15.7656 14.7184Z" fill="#A7A7A7"/>
</g>
<defs>
<clipPath id="clip0_366_26278">
<rect width="16" height="16" fill="white" transform="translate(0 0.0839844)"/>
</clipPath>
</defs>
</svg>
