<svg width="50" height="50" viewBox="0 0 32 33" fill="none" xmlns="http://www.w3.org/2000/svg">
<circle cx="16" cy="16.084" r="16" fill="#151515" fill-opacity="0.1"/>
<path d="M16.1322 16.1832C16.1072 16.1832 16.0905 16.1832 16.0655 16.1832C16.0238 16.1748 15.9655 16.1748 15.9155 16.1832C13.4988 16.1082 11.6738 14.2082 11.6738 11.8665C11.6738 9.48317 13.6155 7.5415 15.9988 7.5415C18.3822 7.5415 20.3238 9.48317 20.3238 11.8665C20.3155 14.2082 18.4822 16.1082 16.1572 16.1832C16.1488 16.1832 16.1405 16.1832 16.1322 16.1832ZM15.9988 8.7915C14.3072 8.7915 12.9238 10.1748 12.9238 11.8665C12.9238 13.5332 14.2238 14.8748 15.8822 14.9332C15.9238 14.9248 16.0405 14.9248 16.1488 14.9332C17.7822 14.8582 19.0655 13.5165 19.0738 11.8665C19.0738 10.1748 17.6905 8.7915 15.9988 8.7915Z" fill="#151515" fill-opacity="0.5"/>
<path d="M16.1404 25.2918C14.507 25.2918 12.8654 24.8752 11.6237 24.0418C10.4654 23.2752 9.83203 22.2252 9.83203 21.0835C9.83203 19.9418 10.4654 18.8835 11.6237 18.1085C14.1237 16.4502 18.1737 16.4502 20.657 18.1085C21.807 18.8752 22.4487 19.9252 22.4487 21.0668C22.4487 22.2085 21.8154 23.2668 20.657 24.0418C19.407 24.8752 17.7737 25.2918 16.1404 25.2918ZM12.3154 19.1585C11.5154 19.6918 11.082 20.3752 11.082 21.0918C11.082 21.8002 11.5237 22.4835 12.3154 23.0085C14.3904 24.4002 17.8904 24.4002 19.9654 23.0085C20.7654 22.4752 21.1987 21.7918 21.1987 21.0752C21.1987 20.3668 20.757 19.6835 19.9654 19.1585C17.8904 17.7752 14.3904 17.7752 12.3154 19.1585Z" fill="#151515" fill-opacity="0.5"/>
</svg>
