<svg width="24" height="25" viewBox="0 0 24 25" fill="none" xmlns="http://www.w3.org/2000/svg">
<path d="M18.7962 8.09802H5.20436C3.39334 8.09802 1.91992 6.6246 1.91992 4.81358V2.72963C1.91992 2.38046 2.20297 2.09741 2.55214 2.09741H21.4485C21.7976 2.09741 22.0807 2.38046 22.0807 2.72963V4.81358C22.0807 6.6246 20.6072 8.09802 18.7962 8.09802ZM3.18435 3.36184V4.81358C3.18435 5.92736 4.09058 6.83359 5.20436 6.83359H18.7962C19.91 6.83359 20.8162 5.92736 20.8162 4.81358V3.36184H3.18435ZM18.1879 22.2018H5.81273C4.69263 22.2018 3.78152 21.2905 3.78152 20.1706V10.9827C3.78152 9.86262 4.69281 8.95133 5.81273 8.95133H18.1877C19.3078 8.95133 20.2189 9.86262 20.2189 10.9827V20.1706C20.2189 21.2907 19.3076 22.2018 18.1877 22.2018H18.1879ZM5.81273 10.2158C5.38987 10.2158 5.04595 10.5597 5.04595 10.9827V20.1706C5.04595 20.5934 5.38987 20.9374 5.81273 20.9374H18.1877C18.6105 20.9374 18.9545 20.5934 18.9545 20.1706V10.9827C18.9545 10.5599 18.6105 10.2158 18.1877 10.2158H5.81273Z" fill="#D0C5FF"/>
<path d="M7.29921 9.94612C6.95004 9.94612 6.66699 9.66307 6.66699 9.31391V7.67738C6.66699 7.32822 6.95004 7.04517 7.29921 7.04517C7.64837 7.04517 7.93142 7.32822 7.93142 7.67738V9.31391C7.93142 9.66307 7.64837 9.94612 7.29921 9.94612ZM16.7011 9.94612C16.352 9.94612 16.0689 9.66307 16.0689 9.31391V7.67738C16.0689 7.32822 16.352 7.04517 16.7011 7.04517C17.0503 7.04517 17.3333 7.32822 17.3333 7.67738V9.31391C17.3333 9.66307 17.0503 9.94612 16.7011 9.94612Z" fill="#D0C5FF"/>
<path d="M12.0004 19.6455C10.9135 19.6455 9.89186 19.2223 9.12327 18.4539C8.35468 17.6855 7.93164 16.6637 7.93164 15.5768C7.93164 14.4899 8.35486 13.4683 9.12327 12.6997C9.89168 11.9313 10.9135 11.5081 12.0004 11.5081C13.0872 11.5081 14.1089 11.9313 14.8775 12.6997C15.6459 13.4681 16.0691 14.4899 16.0691 15.5768C16.0691 16.6637 15.6459 17.6853 14.8775 18.4539C14.1091 19.2225 13.0872 19.6455 12.0004 19.6455ZM12.0004 12.7725C10.454 12.7725 9.19607 14.0306 9.19607 15.5768C9.19607 17.123 10.4542 18.3811 12.0004 18.3811C13.5466 18.3811 14.8047 17.123 14.8047 15.5768C14.8047 14.0306 13.5466 12.7725 12.0004 12.7725Z" fill="#D0C5FF"/>
<path d="M12.0006 16.435C12.4744 16.435 12.8586 16.0509 12.8586 15.577C12.8586 15.1031 12.4744 14.719 12.0006 14.719C11.5267 14.719 11.1426 15.1031 11.1426 15.577C11.1426 16.0509 11.5267 16.435 12.0006 16.435Z" fill="#D0C5FF"/>
<path d="M12.0004 15.934C11.6512 15.934 11.3682 15.651 11.3682 15.3018V13.5858C11.3682 13.2367 11.6512 12.9536 12.0004 12.9536C12.3495 12.9536 12.6326 13.2367 12.6326 13.5858V15.3018C12.6326 15.651 12.3495 15.934 12.0004 15.934ZM12.0004 19.6455C11.6512 19.6455 11.3682 19.3624 11.3682 19.0133V18.2862C11.3682 17.9371 11.6512 17.654 12.0004 17.654C12.3495 17.654 12.6326 17.9371 12.6326 18.2862V19.0133C12.6326 19.3624 12.3495 19.6455 12.0004 19.6455ZM15.4369 16.209H14.7099C14.3607 16.209 14.0777 15.9259 14.0777 15.5768C14.0777 15.2276 14.3607 14.9445 14.7099 14.9445H15.4369C15.7861 14.9445 16.0691 15.2276 16.0691 15.5768C16.0691 15.9259 15.7861 16.209 15.4369 16.209ZM9.2909 16.209H8.56385C8.21469 16.209 7.93164 15.9259 7.93164 15.5768C7.93164 15.2276 8.21469 14.9445 8.56385 14.9445H9.2909C9.64006 14.9445 9.92311 15.2276 9.92311 15.5768C9.92311 15.9259 9.64006 16.209 9.2909 16.209Z" fill="#D0C5FF"/>
</svg>
