<svg width="41" height="40" viewBox="0 0 41 40" fill="none" xmlns="http://www.w3.org/2000/svg">
<rect x="0.666992" width="40" height="40" rx="6" fill="#2CD6F9" fill-opacity="0.1"/>
<path d="M22.1965 16.3519C21.6241 16.76 20.9236 17 20.167 17C18.234 17 16.667 15.433 16.667 13.5C16.667 11.567 18.234 10 20.167 10C21.42 10 22.5192 10.6584 23.1375 11.6481M14.667 28.0872H17.2773C17.6176 28.0872 17.9559 28.1277 18.2858 28.2086L21.0439 28.8789C21.6423 29.0247 22.2658 29.0388 22.8705 28.9214L25.92 28.3281C26.7255 28.1712 27.4666 27.7854 28.0473 27.2205L30.2049 25.1217C30.821 24.5234 30.821 23.5524 30.2049 22.9531C29.6502 22.4134 28.7717 22.3527 28.1441 22.8103L25.6296 24.6449C25.2695 24.9081 24.8313 25.0498 24.3807 25.0498H21.9525H23.4981C24.3692 25.0498 25.0749 24.3633 25.0749 23.5159V23.2091C25.0749 22.5055 24.5826 21.892 23.8811 21.7219L21.4956 21.1417C21.1074 21.0476 20.7098 21 20.3101 21C19.3453 21 17.5989 21.7988 17.5989 21.7988L14.667 23.0249M28.667 14.5C28.667 16.433 27.1 18 25.167 18C23.234 18 21.667 16.433 21.667 14.5C21.667 12.567 23.234 11 25.167 11C27.1 11 28.667 12.567 28.667 14.5ZM10.667 22.6V28.4C10.667 28.9601 10.667 29.2401 10.776 29.454C10.8719 29.6422 11.0248 29.7951 11.213 29.891C11.4269 30 11.7069 30 12.267 30H13.067C13.627 30 13.9071 30 14.121 29.891C14.3091 29.7951 14.4621 29.6422 14.558 29.454C14.667 29.2401 14.667 28.9601 14.667 28.4V22.6C14.667 22.0399 14.667 21.7599 14.558 21.546C14.4621 21.3578 14.3091 21.2049 14.121 21.109C13.9071 21 13.627 21 13.067 21H12.267C11.7069 21 11.4269 21 11.213 21.109C11.0248 21.2049 10.8719 21.3578 10.776 21.546C10.667 21.7599 10.667 22.0399 10.667 22.6Z" stroke="#2CD6F9" stroke-width="2" stroke-linecap="round" stroke-linejoin="round"/>
</svg>
